<?xml version="1.0" encoding="utf-8"?>
<svg id="flag-icons-af" viewBox="0 0 640 480" xmlns="http://www.w3.org/2000/svg" xmlns:bx="https://boxy-svg.com">
  <path fill="#fff" d="m311.3 295-.3 2.6h-.4l-.1-1.8a9.3 9.3 0 0 0-.5-1.6 7.3 7.3 0 0 0-.5-1.3l-1-1.4.8-2.2a6.6 6.6 0 0 1 1.5 2.4 9.4 9.4 0 0 1 .5 3.2m7-4.2c0 .7-.2 1.2-.5 1.5-.2.3-.6.6-1.3.7l.4 1.5a6.7 6.7 0 0 1 0 2 22.5 22.5 0 0 1-.1 1.3h-.4a8.2 8.2 0 0 0-.1-1.3 5.5 5.5 0 0 0-.2-1l-.4-1a10.5 10.5 0 0 0-.7-1.4l-1-1.7.6-2 1 1c.3.2.6.3 1 .3.8 0 1.2-.4 1.2-1.3h.4v1.4m6.4 4.8-.5 2.1c-.4 0-.6-.3-.8-.7l-.4-1.3a12.4 12.4 0 0 1-.1-1.7 4 4 0 0 1-1 .2 2 2 0 0 1-1.3-.4 1.3 1.3 0 0 1-.5-1c0-.9.3-1.7.7-2.3.5-.7 1-1 1.5-1.1.5 0 .8.1 1 .4a2 2 0 0 1 .3.9v2c0 .9.1 1.5.3 1.9 0 .3.3.6.8 1m-2-3.5c0-.6-.3-.8-.8-.8a1 1 0 0 0-.6.1c-.2.1-.2.2-.2.3 0 .3.3.5 1 .5l.6-.1m8.7 3-.3 2.6c-.5-.4-1-1-1.4-2a25.4 25.4 0 0 1-1.3-4.1 52.8 52.8 0 0 1-1.8 5.5 2.9 2.9 0 0 1-.8.7v-2.5c.6-.7.9-1.1 1-1.5a7.6 7.6 0 0 0 .8-1.7l.5-2.7h.4l.9 2.7c.2.6.5 1.2.9 1.6l1 1.4"/>
  <g transform="matrix(1, 0, 0, 1, -140.631989, 33.452999)" style="" bx:origin="0 0">
    <g>
      <path class="st0" d="M 140.632 -33.453 L 780.632 -33.453 L 780.632 446.547 L 140.632 446.547 L 140.632 -33.453 Z" style="fill: rgb(255, 255, 255);"/>
    </g>
    <path d="M 171.594 102.832 C 169.847 103.316 167.13 109.705 168.1 112.029 C 168.974 113.965 170.721 114.739 172.759 115.223 C 171.498 119.774 160.821 123.742 158.686 127.711 C 158.491 130.616 158.686 136.328 163.829 137.199 C 174.895 139.038 184.796 128.68 188.484 116.579 C 185.766 119.58 178.389 127.034 174.313 129.745 C 169.265 132.939 164.412 132.455 161.403 131.003 C 162.18 129.842 165.383 127.808 169.75 124.711 C 174.216 121.709 174.603 120.839 175.866 116.288 C 178.486 117.256 182.078 116.772 182.757 116.094 C 184.213 114.159 184.893 111.835 184.407 109.705 C 183.631 108.06 178.875 102.348 176.545 101.768 C 176.545 99.734 171.11 97.411 170.042 99.251 C 169.847 100.025 171.886 101.38 171.594 102.832 Z M 174.992 106.22 C 175.671 107.479 175.477 108.931 174.701 109.802 C 168.1 110.189 171.11 105.252 174.992 106.22 Z M 177.515 108.157 C 179.069 108.447 180.719 110.383 181.981 111.448 C 179.36 111.835 178.583 111.739 177.225 111.254 C 176.933 110.189 177.128 109.028 177.515 108.157 Z"/>
    <path d="M 480.84 221.517 C 477.637 222.485 476.86 222.97 472.299 224.809 C 469.774 220.646 469.29 220.356 467.93 218.807 C 469.095 217.548 479.675 218.226 480.84 221.517 Z M 469.095 272.728 C 456.768 278.247 448.226 285.797 448.615 299.834 C 434.443 294.219 430.657 279.214 428.813 271.664 C 425.999 259.95 418.817 212.708 403.383 203.802 L 402.995 222.582 C 408.333 231.488 417.554 256.755 420.563 271.373 C 415.225 284.733 384.843 308.934 370.867 308.159 C 360.966 307.579 362.131 294.801 368.828 271.082 C 358.539 281.635 352.91 316.582 367.955 322.584 C 377.467 325.876 390.764 317.162 403.48 307.095 C 422.116 292.284 420.272 285.604 422.31 277.859 C 426.193 294.994 437.646 318.421 472.299 319.002 L 472.589 305.933 C 466.28 305.353 455.215 296.059 455.02 293.058 C 458.806 287.83 479.093 276.988 508.891 270.405 C 512.968 264.113 515.783 260.724 517.335 257.239 C 509.765 258.594 482.49 259.756 475.404 259.95 C 455.118 259.95 454.633 260.337 442.015 259.853 C 442.888 256.368 462.495 240.588 467.93 238.459 C 468.901 239.911 469.29 243.105 469.969 245.913 C 476.181 242.041 475.016 236.039 475.21 235.651 C 475.307 235.167 487.051 231.391 491.42 229.359 L 496.855 217.742 C 490.546 210.094 477.539 204.867 472.395 206.416 C 455.991 211.45 462.301 222.099 464.436 228.778 C 448.323 243.202 429.299 248.042 428.813 274.277 C 435.705 272.535 459.486 272.922 469.095 272.728 Z"/>
    <path d="M 338.739 201.865 L 336.506 201.865 C 329.809 212.417 327.673 221.421 317.772 223.744 C 310.299 225.487 302.339 223.357 305.446 204.479 C 296.516 202.35 273.22 216.193 266.62 217.742 C 264.679 207.093 258.661 201.091 252.546 197.413 C 232.454 185.505 221.583 234.49 239.733 234.974 C 246.625 235.167 248.955 235.07 259.632 234.974 C 261.088 237.684 264.193 243.783 263.417 248.624 C 253.711 262.564 226.922 283.764 209.546 281.635 C 189.454 279.118 178.389 265.468 187.513 232.07 L 186.543 232.07 C 182.563 242.331 164.994 286.765 201.781 297.124 C 217.312 300.028 244.101 293.736 265.358 263.822 C 270.211 257.045 270.114 241.266 269.727 232.941 C 284.092 228.391 289.818 222.002 296.71 219.582 C 298.263 237.587 308.746 240.298 314.376 240.201 C 326.218 239.717 332.332 228.681 334.759 223.357 C 336.409 229.843 342.135 234.587 349.61 233.231 C 364.946 230.52 369.993 204.576 360.869 193.734 L 354.463 206.803 C 362.131 217.354 356.21 218.13 352.812 218.807 C 342.233 221.324 339.515 209.997 338.739 201.865 Z M 253.711 219.388 C 247.887 219.968 242.257 219.871 238.18 219.485 C 237.307 217.548 239.054 212.708 242.063 211.547 C 245.946 210.191 250.604 213.482 253.711 219.388 Z"/>
    <path d="M 382.806 103.994 C 392.318 109.705 402.898 125.291 390.959 148.719 L 389.6 148.719 C 390.474 141.362 395.909 127.422 382.709 116.191 L 382.806 103.994 Z"/>
    <path d="M 398.432 225.583 L 398.239 229.65 L 389.794 226.261 C 395.23 237.974 401.248 247.074 398.821 261.402 C 396.2 276.988 348.542 311.064 331.556 315.614 C 317.967 319.196 299.913 319.486 280.597 319.776 C 320.394 310.29 369.896 281.247 395.617 257.627 C 391.444 252.399 383.582 241.266 382.029 231.295 C 378.729 225.002 375.914 220.453 375.914 220.453 L 378.34 205.738 L 398.432 225.583 Z"/>
    <path d="M 697.874 295.671 C 698.069 299.641 706.319 300.996 712.725 294.801 C 713.502 294.607 714.957 294.607 715.734 294.51 C 714.667 299.931 707.581 303.707 705.542 304.965 C 702.242 306.998 697.583 310.676 693.021 311.935 L 693.118 308.45 C 694.283 307.579 695.157 307.095 697.098 305.353 C 691.662 302.545 691.565 299.06 692.632 296.736 C 695.836 290.25 702.922 283.087 708.746 287.54 C 709.522 291.025 706.999 297.414 703.407 292.574 C 700.981 292.574 698.263 294.025 697.874 295.671 Z"/>
    <path d="M 481.422 113.288 C 479.869 111.932 473.075 112.9 470.745 112.416 C 470.842 109.222 471.618 105.64 475.404 103.316 C 480.937 101.768 491.323 105.059 492.682 106.898 C 494.04 108.737 488.799 114.739 486.372 116.094 C 478.219 121.032 472.881 121.709 470.26 122.097 C 469.095 121.709 467.93 121.225 466.765 120.742 C 473.851 118.902 481.228 114.933 481.422 113.288 Z"/>
    <path d="M 506.95 292.67 C 503.067 292.574 499.185 305.159 487.44 315.904 C 474.433 326.359 467.93 328.682 457.35 333.33 C 475.89 332.361 493.75 322.004 500.544 304.771 C 502.097 306.03 506.465 308.644 509.377 307.482 C 515.297 299.931 508.503 292.67 506.95 292.67 Z M 508.406 301.77 C 508.018 302.061 504.911 300.899 503.844 299.834 C 504.038 298.867 505.397 298.092 506.271 298.382 C 508.503 300.028 509.28 301.093 508.406 301.77 Z"/>
    <path d="M 223.524 227.326 C 214.4 223.744 211.876 243.396 209.353 253.464 C 204.111 238.265 197.996 237.587 194.987 238.846 C 183.436 243.977 196.346 262.37 202.461 251.334 C 204.403 253.657 205.664 258.014 210.614 267.307 C 212.265 254.819 214.012 234.199 223.427 242.718 C 229.542 236.425 225.854 228.294 223.524 227.326 Z"/>
    <path d="M 196.249 185.699 C 194.21 185.505 191.687 189.087 190.328 193.347 C 188.872 197.993 188.387 200.801 197.025 205.738 C 190.717 220.453 166.838 236.136 161.015 240.105 C 181.398 238.362 198.287 217.065 199.744 207.868 C 202.17 209.997 204.208 210.191 203.335 218.419 C 204.305 216.871 207.315 213.87 206.247 208.158 C 204.403 201.962 202.17 201.962 201.199 200.317 C 202.17 194.605 200.617 186.086 196.249 185.699 Z M 197.802 197.897 C 197.22 197.413 194.016 194.896 193.24 193.443 C 193.92 191.894 195.957 192.185 196.928 192.862 C 197.899 193.637 197.899 197.703 197.802 197.897 Z"/>
    <path d="M 422.699 116.482 C 423.766 116.966 421.243 127.228 425.125 127.034 C 428.716 126.453 426.582 120.548 426.29 117.353 C 426.872 116.191 427.358 115.223 428.231 114.643 C 429.105 115.805 429.299 116.676 430.173 118.418 C 430.173 119.677 429.299 124.711 432.405 125.097 C 435.511 125.388 432.793 118.902 432.599 116.772 C 433.182 114.739 434.54 113.288 434.54 113.288 C 440.85 130.906 433.182 133.714 428.523 128.68 C 426.193 132.939 424.64 132.648 423.573 132.648 C 419.01 132.552 420.369 123.839 420.078 123.549 C 419.301 124.033 418.817 124.42 418.039 125.291 L 417.846 122.774 L 422.699 116.482 Z"/>
    <path d="M 257.69 103.219 L 252.546 116.772 L 256.72 131.003 L 277.394 265.468 C 271.668 273.31 240.898 309.805 207.509 307.288 C 154.609 303.222 179.263 242.718 178.583 237.104 L 177.904 237.104 C 148.882 301.673 183.728 323.165 205.858 323.939 C 235.366 324.81 262.155 306.127 278.656 281.441 C 289.042 263.435 279.044 217.258 276.035 198.768 C 273.318 179.116 269.144 154.914 265.553 132.939 C 268.464 134.972 271.765 136.328 271.765 136.328 L 271.765 131.971 L 257.69 103.219 Z"/>
    <path d="M 519.18 137.199 L 513.162 131.583 C 515.588 148.331 521.121 184.828 526.751 220.065 C 527.625 231.488 541.214 285.313 527.333 296.833 C 528.498 275.245 514.715 206.899 510.638 175.437 C 509.959 169.822 504.038 128.099 500.544 116.288 L 504.814 101.38 L 519.374 131.294 L 519.18 137.199 Z"/>
    <path d="M 495.011 151.526 L 485.499 150.654 C 503.844 173.017 514.909 186.57 541.99 215.902 C 568.391 244.461 573.924 250.27 569.556 274.471 C 567.032 252.69 552.861 245.622 526.945 216.29 C 523.354 211.934 490.741 177.664 467.445 141.942 L 469.58 126.646 L 495.011 148.331 L 495.011 151.526 Z"/>
    <path d="M 617.894 139.038 L 611.876 133.423 C 614.303 150.171 619.932 186.086 625.077 221.324 C 631.385 264.596 642.062 305.062 631.385 326.456 C 627.794 293.155 619.932 249.785 615.661 218.419 C 614.982 212.805 602.849 131.1 599.257 118.322 L 603.528 103.413 L 618.088 133.326 L 617.894 139.038 Z"/>
    <path d="M 710.687 139.134 L 704.669 133.52 C 707.095 150.268 711.948 186.667 717.966 222.099 C 723.79 256.271 723.208 268.565 717.966 284.926 C 713.89 255.787 706.804 210.675 701.854 177.47 C 701.175 171.856 695.544 131.777 691.953 118.902 L 695.933 103.026 L 710.687 133.423 L 710.687 139.134 Z"/>
    <path d="M 572.759 138.554 L 566.935 133.229 C 571.012 160.916 574.797 185.893 580.524 221.033 C 583.34 238.459 589.163 275.536 568.683 297.608 C 550.531 317.066 527.333 319.002 514.326 319.39 C 535.875 306.998 574.797 288.314 577.419 263.628 C 575.962 246.3 568.586 207.287 564.12 176.502 C 563.441 170.888 557.812 132.359 554.22 118.708 L 558.296 103.219 L 572.662 133.617 L 572.759 138.554 Z"/>
    <path d="M 652.642 128.196 L 643.713 127.325 C 669.434 158.399 696.322 186.376 723.014 215.225 C 749.707 242.911 756.598 252.979 751.356 274.374 C 752.618 254.431 709.911 220.743 686.421 192.959 C 661.087 163.82 649.051 153.075 625.174 118.805 L 626.921 103.8 C 634.783 108.447 652.642 124.904 652.642 124.904 L 652.642 128.196 Z"/>
    <path d="M 652.642 207.771 C 662.155 213.482 672.735 229.068 660.796 252.496 L 659.437 252.496 C 660.311 245.139 665.746 231.198 652.545 219.968 L 652.642 207.771 Z"/>
    <path d="M 725.246 153.849 C 734.758 159.561 745.338 175.147 733.399 198.574 L 732.041 198.574 C 732.914 191.217 738.349 177.277 725.149 166.047 L 725.246 153.849 Z"/>
    <path d="M 216.535 106.317 C 226.048 112.029 236.628 127.614 224.689 151.042 L 223.329 151.042 C 224.203 143.685 229.639 129.745 216.438 118.515 L 216.535 106.317 Z"/>
    <path d="M 537.913 113.48 C 536.36 112.126 529.566 113.094 527.236 112.609 C 527.333 109.415 528.11 105.833 531.895 103.51 C 537.428 101.96 547.814 105.252 549.173 107.091 C 550.531 108.931 545.29 114.933 542.863 116.288 C 534.71 121.225 529.372 121.903 526.751 122.291 C 525.586 121.903 524.421 121.419 523.256 120.935 C 530.245 119.096 537.719 115.126 537.913 113.48 Z"/>
    <path d="M 586.251 113.191 C 584.698 111.835 577.903 112.803 575.574 112.319 C 575.671 109.125 576.448 105.543 580.233 103.219 C 585.766 101.671 596.151 104.962 597.51 106.802 C 598.87 108.64 593.628 114.643 591.201 115.998 C 583.048 120.935 577.709 121.613 575.089 122 C 573.924 121.613 572.759 121.128 571.595 120.645 C 578.582 118.805 586.057 114.836 586.251 113.191 Z"/>
    <path d="M 721.461 113.48 C 719.907 112.126 713.113 113.094 710.784 112.609 C 710.881 109.415 711.658 105.833 715.443 103.51 C 720.975 101.96 731.362 105.252 732.72 107.091 C 734.079 108.931 728.837 114.933 726.411 116.288 C 718.258 121.225 712.919 121.903 710.298 122.291 C 709.133 121.903 707.969 121.419 706.804 120.935 C 713.793 119.096 721.267 115.126 721.461 113.48 Z"/>
    <path d="M 174.119 211.159 C 172.565 209.804 165.771 210.771 163.442 210.288 C 163.539 207.093 164.315 203.511 168.1 201.188 C 173.633 199.639 184.019 202.931 185.378 204.77 C 186.737 206.609 181.495 212.611 179.069 213.967 C 170.915 218.904 165.577 219.582 162.956 219.968 C 161.792 219.582 160.627 219.097 159.462 218.613 C 166.548 216.677 174.021 212.805 174.119 211.159 Z"/>
    <path d="M 274.094 100.605 C 277.782 106.22 283.995 114.159 287.586 120.548 C 287.683 122.194 287.392 123.259 287.488 124.808 C 281.277 121.225 285.839 123.839 281.956 121.709 C 286.518 130.616 295.642 150.558 294.574 163.046 C 293.119 179.6 275.453 191.797 257.982 184.15 C 248.76 180.084 245.169 165.854 245.169 165.854 C 245.169 165.854 243.228 173.211 241.19 177.857 C 236.336 189.281 214.497 197.219 203.335 184.828 C 187.902 167.596 199.937 145.234 196.346 136.617 C 183.533 161.303 190.522 189.571 173.924 189.765 C 164.897 188.506 153.444 163.046 162.374 138.845 C 161.5 155.979 164.218 175.534 174.119 175.922 C 176.545 176.019 178.001 173.791 180.622 167.79 C 186.445 152.979 187.513 125.872 205.47 117.353 C 206.732 125.388 205.373 137.102 203.432 147.654 C 200.811 161.982 207.702 179.794 225.659 174.469 C 228.96 173.502 233.909 171.371 240.801 159.077 C 243.325 149.88 236.918 130.906 235.074 118.128 C 236.142 115.32 238.375 108.543 239.83 106.317 C 241.19 107.672 245.364 115.611 245.557 117.063 C 247.984 130.616 248.469 161.207 261.184 169.919 C 267.882 174.469 284.868 170.888 289.818 163.53 C 285.839 157.431 274.483 135.262 273.318 120.742 C 272.832 118.031 271.376 114.643 270.988 113.48 L 274.094 100.605 Z"/>
    <path d="M 754.85 138.845 L 749.026 133.52 C 753.103 161.207 756.889 186.183 762.615 221.324 C 765.431 238.75 771.934 277.182 750.483 298.382 C 733.496 315.227 716.219 318.228 695.447 319.39 C 715.54 308.547 757.083 288.121 759.51 263.822 C 758.054 246.494 750.677 207.48 746.212 176.696 C 745.533 171.081 739.903 132.552 736.311 118.902 L 740.388 103.413 L 754.754 133.811 L 754.85 138.845 Z"/>
    <path d="M 681.082 138.554 L 675.258 133.229 C 679.335 160.916 682.829 184.828 688.556 220.065 C 691.371 237.491 696.612 263.435 691.08 277.472 C 686.032 290.541 682.15 301.673 664.873 302.739 C 638.277 304.384 643.13 267.017 627.406 267.404 C 602.461 267.985 594.501 335.072 579.942 336.233 C 561.014 337.299 547.814 296.736 559.85 271.664 C 556.841 297.995 565.188 319.582 576.641 319.97 C 592.463 320.454 599.257 250.076 631.677 251.044 C 647.013 251.528 641.772 286.378 666.135 287.153 C 676.715 287.54 685.062 280.085 685.935 273.116 C 684.48 255.787 676.908 210.191 672.443 179.406 C 671.764 173.791 666.135 132.648 662.64 118.902 L 666.717 103.413 L 681.082 133.811 L 681.082 138.554 Z"/>
    <path d="M 352.91 103.994 C 350.968 103.897 348.056 109.415 348.348 111.448 C 348.736 113.674 349.221 113.965 350.968 114.546 C 337.671 127.614 332.139 126.453 318.743 131.003 C 343.3 133.133 350.289 120.354 353.59 115.805 C 355.724 116.966 360.19 117.45 360.869 116.869 C 362.422 115.32 363.296 113.48 363.102 111.351 C 362.616 109.802 359.51 104.381 357.568 103.606 C 357.86 101.864 353.298 99.057 352.133 100.702 C 351.745 101.38 353.395 102.832 352.91 103.994 Z M 355.531 107.382 C 355.919 108.543 355.627 109.899 354.851 110.48 C 349.124 109.996 352.23 106.123 355.531 107.382 Z M 357.472 109.318 C 358.733 109.802 359.704 111.545 360.48 112.609 C 358.151 112.609 357.763 112.513 356.598 111.932 C 356.695 111.06 356.986 110.189 357.472 109.318 Z"/>
    <path d="M 474.725 167.208 C 473.075 167.112 471.036 169.919 469.969 173.502 C 468.804 177.374 468.416 179.697 475.501 183.666 C 476.763 189.281 456.38 203.511 449.488 207.868 C 468.513 204.286 474.919 194.121 477.637 185.408 C 479.578 187.151 481.325 187.248 480.548 194.025 C 481.422 192.766 483.752 190.345 482.976 185.699 C 481.519 180.665 479.675 180.665 478.802 179.31 C 479.578 174.566 478.316 167.596 474.725 167.208 Z M 475.987 177.18 C 475.501 176.793 472.881 174.663 472.201 173.598 C 472.686 172.339 474.337 172.533 475.21 173.114 C 476.084 173.694 476.084 177.083 475.987 177.18 Z"/>
    <path d="M 429.202 213.289 C 430.173 214.257 427.455 225.971 432.017 225.68 C 436.288 225.002 433.667 217.936 433.376 214.354 C 434.055 212.999 434.637 211.837 435.705 211.159 C 436.578 212.514 437.064 213.579 437.938 215.613 C 437.938 217.161 436.87 222.97 440.558 223.55 C 444.246 223.841 441.044 216.29 440.85 213.676 C 441.529 211.256 443.373 209.417 443.373 209.417 C 450.847 230.133 441.626 233.812 436.191 228.004 C 433.473 232.941 431.628 232.65 430.367 232.65 C 425.125 232.457 426.387 221.905 425.999 221.711 C 425.125 222.195 424.446 222.97 423.573 224.131 L 423.67 220.453 L 429.202 213.289 Z"/>
    <path d="M 533.157 146.492 C 534.128 147.46 531.41 159.174 535.972 158.883 C 540.243 158.206 537.622 151.139 537.331 147.557 C 538.01 146.202 538.593 145.04 539.66 144.362 C 540.534 145.717 541.019 146.782 541.893 148.816 C 541.893 150.365 540.825 156.173 544.513 156.754 C 548.202 157.044 544.999 149.493 544.805 146.879 C 545.484 144.459 547.329 142.62 547.329 142.62 C 554.802 163.336 545.581 167.016 540.146 161.207 C 537.428 166.144 535.584 165.854 534.322 165.854 C 529.08 165.66 530.342 155.108 529.954 154.914 C 529.08 155.399 528.401 156.173 527.528 157.334 L 527.625 153.656 L 533.157 146.492 Z"/>
    <path d="M 316.123 136.134 L 310.007 130.519 C 312.434 147.266 317.967 183.763 323.596 219 C 324.47 230.424 338.059 284.248 324.179 295.768 C 325.344 274.181 311.561 205.834 307.484 174.373 C 306.805 168.757 300.884 127.034 297.389 115.223 L 301.66 100.315 L 316.22 130.228 L 316.22 136.134 L 316.123 136.134 Z"/>
    <path d="M 442.305 100.605 C 445.994 106.22 452.206 114.159 455.798 120.548 C 455.894 122.194 455.603 123.259 455.701 124.808 C 449.488 121.225 454.05 123.839 450.167 121.709 C 454.73 130.616 463.853 150.558 462.786 163.046 C 461.33 179.6 443.664 191.797 426.193 184.15 C 416.971 180.084 413.38 165.854 413.38 165.854 C 413.38 165.854 411.439 173.211 409.401 177.857 C 404.548 189.281 382.709 197.219 371.546 184.828 C 356.113 167.596 368.149 145.234 364.557 136.617 C 351.745 161.303 358.733 189.571 342.135 189.765 C 333.109 188.506 321.752 165.273 330.779 136.328 C 329.906 153.462 332.429 175.534 342.427 176.019 C 344.854 176.115 346.309 173.888 348.93 167.886 C 354.754 153.075 355.822 125.969 373.779 117.45 C 375.04 125.485 373.682 137.199 371.74 147.751 C 369.12 162.078 376.011 179.891 393.968 174.566 C 397.268 173.598 402.219 171.468 409.11 159.174 C 411.633 149.977 405.227 131.003 403.383 118.225 C 404.45 115.417 406.683 108.64 408.139 106.414 C 409.498 107.769 413.672 115.708 413.866 117.16 C 416.292 130.713 416.778 161.303 429.494 170.016 C 436.191 174.566 453.176 170.984 458.127 163.627 C 454.147 157.528 442.791 135.359 441.626 120.839 C 441.141 118.128 439.685 114.739 439.297 113.577 L 442.305 100.605 Z"/>
    <path d="M 502.097 251.528 C 488.022 249.979 506.756 218.904 514.423 218.226 C 502.97 231.488 503.649 236.329 503.747 238.168 C 503.747 240.201 506.174 243.105 509.086 240.008 L 510.153 240.782 C 509.959 241.75 507.532 252.205 502.097 251.528 Z"/>
    <path d="M 547.425 207.48 C 533.351 205.931 552.085 174.856 559.753 174.179 C 548.3 187.539 548.979 192.282 549.076 194.121 C 549.076 196.154 551.502 199.059 554.414 195.96 L 555.482 196.734 C 555.287 197.51 552.861 207.965 547.425 207.48 Z"/>
    <path d="M 586.348 192.088 C 569.362 190.152 591.978 152.882 601.296 151.913 C 587.513 167.886 588.289 173.694 588.386 175.922 C 588.483 178.439 591.201 181.923 594.793 178.148 L 596.055 179.019 C 595.861 180.277 592.949 192.862 586.348 192.088 Z"/>
    <path d="M 595.763 255.497 C 578.777 253.561 601.393 216.29 610.711 215.322 C 596.928 231.295 597.705 237.104 597.802 239.33 C 597.899 241.847 600.617 245.332 604.208 241.556 L 605.47 242.428 C 605.275 243.687 602.266 256.271 595.763 255.497 Z"/>
    <path d="M 636.239 202.253 C 619.253 200.317 641.868 163.046 651.187 162.078 C 637.404 178.051 638.18 183.859 638.277 186.086 C 638.374 188.603 641.092 192.088 644.684 188.313 L 645.945 189.184 C 645.654 190.442 642.742 203.027 636.239 202.253 Z"/>
    <path d="M 608.382 327.908 C 591.395 325.972 614.011 288.605 623.329 287.733 C 609.547 303.707 610.323 309.515 610.42 311.742 C 610.517 314.259 613.235 317.744 616.826 313.968 L 618.088 314.839 C 617.894 316.001 614.885 328.586 608.382 327.908 Z"/>
    <path d="M 349.221 274.277 C 332.235 272.341 354.851 235.07 364.17 234.102 C 350.386 250.076 351.163 255.884 351.26 258.11 C 351.357 260.627 354.075 264.113 357.666 260.337 L 358.928 261.208 C 358.636 262.37 355.724 274.955 349.221 274.277 Z"/>
    <path d="M 414.06 331.006 C 399.986 329.458 418.719 298.382 426.387 297.705 C 414.934 311.064 415.613 315.807 415.71 317.647 C 415.71 319.679 418.136 322.584 421.048 319.486 L 422.116 320.261 C 421.825 321.132 419.496 331.684 414.06 331.006 Z"/>
    <path d="M 266.135 331.878 C 251.964 330.232 270.794 299.253 278.462 298.479 C 267.008 311.838 267.688 316.582 267.785 318.421 C 267.785 320.454 270.211 323.358 273.123 320.261 L 274.191 321.035 C 273.9 322.004 271.474 332.458 266.135 331.878 Z"/>
    <path d="M 293.895 303.125 C 274.677 300.996 300.204 258.498 310.881 257.433 C 295.157 275.73 296.128 282.313 296.224 284.733 C 296.321 287.443 299.428 291.509 303.602 287.25 L 305.057 288.218 C 304.572 289.67 301.272 303.997 293.895 303.125 Z"/>
  </g>
</svg>