<?xml version="1.0" encoding="utf-8"?>
<svg width="1000" height="700" version="1.1" id="svg10" xmlns="http://www.w3.org/2000/svg">
  <path d="M 0,0 H 1000.6728 V 700.67283 H 0 Z" id="path2" style="stroke-width: 1.13948; fill: rgb(255, 255, 255);"/>
  <g transform="matrix(1.605718, 0, 0, 1.605718, -141.304977, -7.479231)" style="">
    <path fill="#fff" d="M 311.3 295 L 311 297.6 L 310.6 297.6 L 310.5 295.8 C 310.382 295.253 310.214 294.717 310 294.2 C 309.875 293.752 309.708 293.316 309.5 292.9 L 308.5 291.5 L 309.3 289.3 C 309.968 289.982 310.479 290.801 310.8 291.7 C 311.151 292.73 311.32 293.812 311.3 294.9 M 318.3 290.7 C 318.3 291.4 318.1 291.9 317.8 292.2 C 317.6 292.5 317.2 292.8 316.5 292.9 L 316.9 294.4 C 317 295.063 317 295.737 316.9 296.4 C 316.879 296.834 316.846 297.268 316.8 297.7 L 316.4 297.7 C 316.401 297.265 316.368 296.83 316.3 296.4 C 316.264 296.061 316.197 295.726 316.1 295.4 L 315.7 294.4 C 315.502 293.917 315.268 293.449 315 293 L 314 291.3 L 314.6 289.3 L 315.6 290.3 C 315.9 290.5 316.2 290.6 316.6 290.6 C 317.4 290.6 317.8 290.2 317.8 289.3 L 318.2 289.3 L 318.2 290.7 M 324.6 295.5 L 324.1 297.6 C 323.7 297.6 323.5 297.3 323.3 296.9 L 322.9 295.6 C 322.828 295.036 322.794 294.468 322.8 293.9 C 322.477 294.009 322.141 294.076 321.8 294.1 C 321.333 294.123 320.873 293.981 320.5 293.7 C 320.191 293.459 320.007 293.092 320 292.7 C 320 291.8 320.3 291 320.7 290.4 C 321.2 289.7 321.7 289.4 322.2 289.3 C 322.7 289.3 323 289.4 323.2 289.7 C 323.371 289.972 323.474 290.28 323.5 290.6 L 323.5 292.6 C 323.5 293.5 323.6 294.1 323.8 294.5 C 323.8 294.8 324.1 295.1 324.6 295.5 M 322.6 292 C 322.6 291.4 322.3 291.2 321.8 291.2 C 321.594 291.17 321.385 291.205 321.2 291.3 C 321 291.4 321 291.5 321 291.6 C 321 291.9 321.3 292.1 322 292.1 L 322.6 292 M 331.3 295 L 331 297.6 C 330.5 297.2 330 296.6 329.6 295.6 C 329.052 294.273 328.617 292.901 328.3 291.5 C 327.801 293.365 327.2 295.201 326.5 297 C 326.279 297.281 326.008 297.518 325.7 297.7 L 325.7 295.2 C 326.3 294.5 326.6 294.1 326.7 293.7 C 327.036 293.169 327.305 292.598 327.5 292 L 328 289.3 L 328.4 289.3 L 329.3 292 C 329.5 292.6 329.8 293.2 330.2 293.6 L 331.2 295"/>
    <path d="M 107.312 111.847 C 105.565 112.331 102.848 118.72 103.818 121.044 C 104.692 122.98 106.439 123.754 108.477 124.238 C 107.216 128.789 96.539 132.757 94.404 136.726 C 94.209 139.631 94.404 145.343 99.547 146.214 C 110.613 148.053 120.514 137.695 124.202 125.594 C 121.484 128.595 114.107 136.049 110.031 138.76 C 104.983 141.954 100.13 141.47 97.121 140.018 C 97.898 138.857 101.101 136.823 105.468 133.726 C 109.934 130.724 110.321 129.854 111.584 125.303 C 114.204 126.271 117.796 125.787 118.475 125.109 C 119.931 123.174 120.611 120.85 120.125 118.72 C 119.349 117.075 114.593 111.363 112.263 110.783 C 112.263 108.749 106.828 106.426 105.76 108.266 C 105.565 109.04 107.604 110.395 107.312 111.847 Z M 110.71 115.235 C 111.389 116.494 111.195 117.946 110.419 118.817 C 103.818 119.204 106.828 114.267 110.71 115.235 Z M 113.233 117.172 C 114.787 117.462 116.437 119.398 117.699 120.463 C 115.078 120.85 114.301 120.754 112.943 120.269 C 112.651 119.204 112.846 118.043 113.233 117.172 Z"/>
    <path d="M 416.558 230.532 C 413.355 231.5 412.578 231.985 408.017 233.824 C 405.492 229.661 405.008 229.371 403.648 227.822 C 404.813 226.563 415.393 227.241 416.558 230.532 Z M 404.813 281.743 C 392.486 287.262 383.944 294.812 384.333 308.849 C 370.161 303.234 366.375 288.229 364.531 280.679 C 361.717 268.965 354.535 221.723 339.101 212.817 L 338.713 231.597 C 344.051 240.503 353.272 265.77 356.281 280.388 C 350.943 293.748 320.561 317.949 306.585 317.174 C 296.684 316.594 297.849 303.816 304.546 280.097 C 294.257 290.65 288.628 325.597 303.673 331.599 C 313.185 334.891 326.482 326.177 339.198 316.11 C 357.834 301.299 355.99 294.619 358.028 286.874 C 361.911 304.009 373.364 327.436 408.017 328.017 L 408.307 314.948 C 401.998 314.368 390.933 305.074 390.738 302.073 C 394.524 296.845 414.811 286.003 444.609 279.42 C 448.686 273.128 451.501 269.739 453.053 266.254 C 445.483 267.609 418.208 268.771 411.122 268.965 C 390.836 268.965 390.351 269.352 377.733 268.868 C 378.606 265.383 398.213 249.603 403.648 247.474 C 404.619 248.926 405.008 252.12 405.687 254.928 C 411.899 251.056 410.734 245.054 410.928 244.666 C 411.025 244.182 422.769 240.406 427.138 238.374 L 432.573 226.757 C 426.264 219.109 413.257 213.882 408.113 215.431 C 391.709 220.465 398.019 231.114 400.154 237.793 C 384.041 252.217 365.017 257.057 364.531 283.292 C 371.423 281.55 395.204 281.937 404.813 281.743 Z"/>
    <path d="M 274.457 210.88 L 272.224 210.88 C 265.527 221.432 263.391 230.436 253.49 232.759 C 246.017 234.502 238.057 232.372 241.164 213.494 C 232.234 211.365 208.938 225.208 202.338 226.757 C 200.397 216.108 194.379 210.106 188.264 206.428 C 168.172 194.52 157.301 243.505 175.451 243.989 C 182.343 244.182 184.673 244.085 195.35 243.989 C 196.806 246.699 199.911 252.798 199.135 257.639 C 189.429 271.579 162.64 292.779 145.264 290.65 C 125.172 288.133 114.107 274.483 123.231 241.085 L 122.261 241.085 C 118.281 251.346 100.712 295.78 137.499 306.139 C 153.03 309.043 179.819 302.751 201.076 272.837 C 205.929 266.06 205.832 250.281 205.445 241.956 C 219.81 237.406 225.536 231.017 232.428 228.597 C 233.981 246.602 244.464 249.313 250.094 249.216 C 261.936 248.732 268.05 237.696 270.477 232.372 C 272.127 238.858 277.853 243.602 285.328 242.246 C 300.664 239.535 305.711 213.591 296.587 202.749 L 290.181 215.818 C 297.849 226.369 291.928 227.145 288.53 227.822 C 277.951 230.339 275.233 219.012 274.457 210.88 Z M 189.429 228.403 C 183.605 228.983 177.975 228.886 173.898 228.5 C 173.025 226.563 174.772 221.723 177.781 220.562 C 181.664 219.206 186.322 222.497 189.429 228.403 Z"/>
    <path d="M 318.524 113.009 C 328.036 118.72 338.616 134.306 326.677 157.734 L 325.318 157.734 C 326.192 150.377 331.627 136.437 318.427 125.206 L 318.524 113.009 Z"/>
    <path d="M 334.15 234.598 L 333.957 238.665 L 325.512 235.276 C 330.948 246.989 336.966 256.089 334.539 270.417 C 331.918 286.003 284.26 320.079 267.274 324.629 C 253.685 328.211 235.631 328.501 216.315 328.791 C 256.112 319.305 305.614 290.262 331.335 266.642 C 327.162 261.414 319.3 250.281 317.747 240.31 C 314.447 234.017 311.632 229.468 311.632 229.468 L 314.058 214.753 L 334.15 234.598 Z"/>
    <path d="M 633.592 304.686 C 633.787 308.656 642.037 310.011 648.443 303.816 C 649.22 303.622 650.675 303.622 651.452 303.525 C 650.385 308.946 643.299 312.722 641.26 313.98 C 637.96 316.013 633.301 319.691 628.739 320.95 L 628.836 317.465 C 630.001 316.594 630.875 316.11 632.816 314.368 C 627.38 311.56 627.283 308.075 628.35 305.751 C 631.554 299.265 638.64 292.102 644.464 296.555 C 645.24 300.04 642.717 306.429 639.125 301.589 C 636.699 301.589 633.981 303.04 633.592 304.686 Z"/>
    <path d="M 417.14 122.303 C 415.587 120.947 408.793 121.915 406.463 121.431 C 406.56 118.237 407.336 114.655 411.122 112.331 C 416.655 110.783 427.041 114.074 428.4 115.913 C 429.758 117.752 424.517 123.754 422.09 125.109 C 413.937 130.047 408.599 130.724 405.978 131.112 C 404.813 130.724 403.648 130.24 402.483 129.757 C 409.569 127.917 416.946 123.948 417.14 122.303 Z"/>
    <path d="M 442.668 301.685 C 438.785 301.589 434.903 314.174 423.158 324.919 C 410.151 335.374 403.648 337.697 393.068 342.345 C 411.608 341.376 429.468 331.019 436.262 313.786 C 437.815 315.045 442.183 317.659 445.095 316.497 C 451.015 308.946 444.221 301.685 442.668 301.685 Z M 444.124 310.785 C 443.736 311.076 440.629 309.914 439.562 308.849 C 439.756 307.882 441.115 307.107 441.989 307.397 C 444.221 309.043 444.998 310.108 444.124 310.785 Z"/>
    <path d="M 159.242 236.341 C 150.118 232.759 147.594 252.411 145.071 262.479 C 139.829 247.28 133.714 246.602 130.705 247.861 C 119.154 252.992 132.064 271.385 138.179 260.349 C 140.121 262.672 141.382 267.029 146.332 276.322 C 147.983 263.834 149.73 243.214 159.145 251.733 C 165.26 245.44 161.572 237.309 159.242 236.341 Z"/>
    <path d="M 131.967 194.714 C 129.928 194.52 127.405 198.102 126.046 202.362 C 124.59 207.008 124.105 209.816 132.743 214.753 C 126.435 229.468 102.556 245.151 96.733 249.12 C 117.116 247.377 134.005 226.08 135.462 216.883 C 137.888 219.012 139.926 219.206 139.053 227.434 C 140.023 225.886 143.033 222.885 141.965 217.173 C 140.121 210.977 137.888 210.977 136.917 209.332 C 137.888 203.62 136.335 195.101 131.967 194.714 Z M 133.52 206.912 C 132.938 206.428 129.734 203.911 128.958 202.458 C 129.638 200.909 131.675 201.2 132.646 201.877 C 133.617 202.652 133.617 206.718 133.52 206.912 Z"/>
    <path d="M 358.417 125.497 C 359.484 125.981 356.961 136.243 360.843 136.049 C 364.434 135.468 362.3 129.563 362.008 126.368 C 362.59 125.206 363.076 124.238 363.949 123.658 C 364.823 124.82 365.017 125.691 365.891 127.433 C 365.891 128.692 365.017 133.726 368.123 134.112 C 371.229 134.403 368.511 127.917 368.317 125.787 C 368.9 123.754 370.258 122.303 370.258 122.303 C 376.568 139.921 368.9 142.729 364.241 137.695 C 361.911 141.954 360.358 141.663 359.291 141.663 C 354.728 141.567 356.087 132.854 355.796 132.564 C 355.019 133.048 354.535 133.435 353.757 134.306 L 353.564 131.789 L 358.417 125.497 Z"/>
    <path d="M 193.408 112.234 L 188.264 125.787 L 192.438 140.018 L 213.112 274.483 C 207.386 282.325 176.616 318.82 143.227 316.303 C 90.327 312.237 114.981 251.733 114.301 246.119 L 113.622 246.119 C 84.6 310.688 119.446 332.18 141.576 332.954 C 171.084 333.825 197.873 315.142 214.374 290.456 C 224.76 272.45 214.762 226.273 211.753 207.783 C 209.036 188.131 204.862 163.929 201.271 141.954 C 204.182 143.987 207.483 145.343 207.483 145.343 L 207.483 140.986 L 193.408 112.234 Z"/>
    <path d="M 454.898 146.214 L 448.88 140.598 C 451.306 157.346 456.839 193.843 462.469 229.08 C 463.343 240.503 476.932 294.328 463.051 305.848 C 464.216 284.26 450.433 215.914 446.356 184.452 C 445.677 178.837 439.756 137.114 436.262 125.303 L 440.532 110.395 L 455.092 140.309 L 454.898 146.214 Z"/>
    <path d="M 430.729 160.541 L 421.217 159.669 C 439.562 182.032 450.627 195.585 477.708 224.917 C 504.109 253.476 509.642 259.285 505.274 283.486 C 502.75 261.705 488.579 254.637 462.663 225.305 C 459.072 220.949 426.459 186.679 403.163 150.957 L 405.298 135.661 L 430.729 157.346 L 430.729 160.541 Z"/>
    <path d="M 553.612 148.053 L 547.594 142.438 C 550.021 159.186 555.65 195.101 560.795 230.339 C 567.103 273.611 577.78 314.077 567.103 335.471 C 563.512 302.17 555.65 258.8 551.379 227.434 C 550.7 221.82 538.567 140.115 534.975 127.337 L 539.246 112.428 L 553.806 142.341 L 553.612 148.053 Z"/>
    <path d="M 646.405 148.149 L 640.387 142.535 C 642.813 159.283 647.666 195.682 653.684 231.114 C 659.508 265.286 658.926 277.58 653.684 293.941 C 649.608 264.802 642.522 219.69 637.572 186.485 C 636.893 180.871 631.262 140.792 627.671 127.917 L 631.651 112.041 L 646.405 142.438 L 646.405 148.149 Z"/>
    <path d="M 508.477 147.569 L 502.653 142.244 C 506.73 169.931 510.515 194.908 516.242 230.048 C 519.058 247.474 524.881 284.551 504.401 306.623 C 486.249 326.081 463.051 328.017 450.044 328.405 C 471.593 316.013 510.515 297.329 513.137 272.643 C 511.68 255.315 504.304 216.302 499.838 185.517 C 499.159 179.903 493.53 141.374 489.938 127.723 L 494.014 112.234 L 508.38 142.632 L 508.477 147.569 Z"/>
    <path d="M 588.36 137.211 L 579.431 136.34 C 605.152 167.414 632.04 195.391 658.732 224.24 C 685.425 251.926 692.316 261.994 687.074 283.389 C 688.336 263.446 645.629 229.758 622.139 201.974 C 596.805 172.835 584.769 162.09 560.892 127.82 L 562.639 112.815 C 570.501 117.462 588.36 133.919 588.36 133.919 L 588.36 137.211 Z"/>
    <path d="M 588.36 216.786 C 597.873 222.497 608.453 238.083 596.514 261.511 L 595.155 261.511 C 596.029 254.154 601.464 240.213 588.263 228.983 L 588.36 216.786 Z"/>
    <path d="M 660.964 162.864 C 670.476 168.576 681.056 184.162 669.117 207.589 L 667.759 207.589 C 668.632 200.232 674.067 186.292 660.867 175.062 L 660.964 162.864 Z"/>
    <path d="M 152.253 115.332 C 161.766 121.044 172.346 136.629 160.407 160.057 L 159.047 160.057 C 159.921 152.7 165.357 138.76 152.156 127.53 L 152.253 115.332 Z"/>
    <path d="M 473.631 122.495 C 472.078 121.141 465.284 122.109 462.954 121.624 C 463.051 118.43 463.828 114.848 467.613 112.525 C 473.146 110.975 483.532 114.267 484.891 116.106 C 486.249 117.946 481.008 123.948 478.581 125.303 C 470.428 130.24 465.09 130.918 462.469 131.306 C 461.304 130.918 460.139 130.434 458.974 129.95 C 465.963 128.111 473.437 124.141 473.631 122.495 Z"/>
    <path d="M 521.969 122.206 C 520.416 120.85 513.621 121.818 511.292 121.334 C 511.389 118.14 512.166 114.558 515.951 112.234 C 521.484 110.686 531.869 113.977 533.228 115.817 C 534.588 117.655 529.346 123.658 526.919 125.013 C 518.766 129.95 513.427 130.628 510.807 131.015 C 509.642 130.628 508.477 130.143 507.313 129.66 C 514.3 127.82 521.775 123.851 521.969 122.206 Z"/>
    <path d="M 657.179 122.495 C 655.625 121.141 648.831 122.109 646.502 121.624 C 646.599 118.43 647.376 114.848 651.161 112.525 C 656.693 110.975 667.08 114.267 668.438 116.106 C 669.797 117.946 664.555 123.948 662.129 125.303 C 653.976 130.24 648.637 130.918 646.016 131.306 C 644.851 130.918 643.687 130.434 642.522 129.95 C 649.511 128.111 656.985 124.141 657.179 122.495 Z"/>
    <path d="M 109.837 220.174 C 108.283 218.819 101.489 219.786 99.16 219.303 C 99.257 216.108 100.033 212.526 103.818 210.203 C 109.351 208.654 119.737 211.946 121.096 213.785 C 122.455 215.624 117.213 221.626 114.787 222.982 C 106.633 227.919 101.295 228.597 98.674 228.983 C 97.51 228.597 96.345 228.112 95.18 227.628 C 102.266 225.692 109.739 221.82 109.837 220.174 Z"/>
    <path d="M 209.812 109.62 C 213.5 115.235 219.713 123.174 223.304 129.563 C 223.401 131.209 223.11 132.274 223.206 133.823 C 216.995 130.24 221.557 132.854 217.674 130.724 C 222.236 139.631 231.36 159.573 230.292 172.061 C 228.837 188.615 211.171 200.812 193.7 193.165 C 184.478 189.099 180.887 174.869 180.887 174.869 C 180.887 174.869 178.946 182.226 176.908 186.872 C 172.054 198.296 150.215 206.234 139.053 193.843 C 123.62 176.611 135.655 154.249 132.064 145.632 C 119.251 170.318 126.24 198.586 109.642 198.78 C 100.615 197.521 89.162 172.061 98.092 147.86 C 97.218 164.994 99.936 184.549 109.837 184.937 C 112.263 185.034 113.719 182.806 116.34 176.805 C 122.163 161.994 123.231 134.887 141.188 126.368 C 142.45 134.403 141.091 146.117 139.15 156.669 C 136.529 170.997 143.42 188.809 161.377 183.484 C 164.678 182.517 169.627 180.386 176.519 168.092 C 179.043 158.895 172.636 139.921 170.792 127.143 C 171.86 124.335 174.093 117.558 175.548 115.332 C 176.908 116.687 181.082 124.626 181.275 126.078 C 183.702 139.631 184.187 170.222 196.902 178.934 C 203.6 183.484 220.586 179.903 225.536 172.545 C 221.557 166.446 210.201 144.277 209.036 129.757 C 208.55 127.046 207.094 123.658 206.706 122.495 L 209.812 109.62 Z"/>
    <path d="M 690.568 147.86 L 684.744 142.535 C 688.821 170.222 692.607 195.198 698.333 230.339 C 701.149 247.765 707.652 286.197 686.201 307.397 C 669.214 324.242 651.937 327.243 631.165 328.405 C 651.258 317.562 692.801 297.136 695.228 272.837 C 693.772 255.509 686.395 216.495 681.93 185.711 C 681.251 180.096 675.621 141.567 672.029 127.917 L 676.106 112.428 L 690.472 142.826 L 690.568 147.86 Z"/>
    <path d="M 616.8 147.569 L 610.976 142.244 C 615.053 169.931 618.547 193.843 624.274 229.08 C 627.089 246.506 632.33 272.45 626.798 286.487 C 621.75 299.556 617.868 310.688 600.591 311.754 C 573.995 313.399 578.848 276.032 563.124 276.419 C 538.179 277 530.219 344.087 515.66 345.248 C 496.732 346.314 483.532 305.751 495.568 280.679 C 492.559 307.01 500.906 328.597 512.359 328.985 C 528.181 329.469 534.975 259.091 567.395 260.059 C 582.731 260.543 577.49 295.393 601.853 296.168 C 612.433 296.555 620.78 289.1 621.653 282.131 C 620.198 264.802 612.626 219.206 608.161 188.421 C 607.482 182.806 601.853 141.663 598.358 127.917 L 602.435 112.428 L 616.8 142.826 L 616.8 147.569 Z"/>
    <path d="M 288.628 113.009 C 286.686 112.912 283.774 118.43 284.066 120.463 C 284.454 122.689 284.939 122.98 286.686 123.561 C 273.389 136.629 267.857 135.468 254.461 140.018 C 279.018 142.148 286.007 129.369 289.308 124.82 C 291.442 125.981 295.908 126.465 296.587 125.884 C 298.14 124.335 299.014 122.495 298.82 120.366 C 298.334 118.817 295.228 113.396 293.286 112.621 C 293.578 110.879 289.016 108.072 287.851 109.717 C 287.463 110.395 289.113 111.847 288.628 113.009 Z M 291.249 116.397 C 291.637 117.558 291.345 118.914 290.569 119.495 C 284.842 119.011 287.948 115.138 291.249 116.397 Z M 293.19 118.333 C 294.451 118.817 295.422 120.56 296.198 121.624 C 293.869 121.624 293.481 121.528 292.316 120.947 C 292.413 120.075 292.704 119.204 293.19 118.333 Z"/>
    <path d="M 410.443 176.223 C 408.793 176.127 406.754 178.934 405.687 182.517 C 404.522 186.389 404.134 188.712 411.219 192.681 C 412.481 198.296 392.098 212.526 385.206 216.883 C 404.231 213.301 410.637 203.136 413.355 194.423 C 415.296 196.166 417.043 196.263 416.266 203.04 C 417.14 201.781 419.47 199.36 418.694 194.714 C 417.237 189.68 415.393 189.68 414.52 188.325 C 415.296 183.581 414.034 176.611 410.443 176.223 Z M 411.705 186.195 C 411.219 185.808 408.599 183.678 407.919 182.613 C 408.404 181.354 410.055 181.548 410.928 182.129 C 411.802 182.709 411.802 186.098 411.705 186.195 Z"/>
    <path d="M 364.92 222.304 C 365.891 223.272 363.173 234.986 367.735 234.695 C 372.006 234.017 369.385 226.951 369.094 223.369 C 369.773 222.014 370.355 220.852 371.423 220.174 C 372.296 221.529 372.782 222.594 373.656 224.628 C 373.656 226.176 372.588 231.985 376.276 232.565 C 379.964 232.856 376.762 225.305 376.568 222.691 C 377.247 220.271 379.091 218.432 379.091 218.432 C 386.565 239.148 377.344 242.827 371.909 237.019 C 369.191 241.956 367.346 241.665 366.085 241.665 C 360.843 241.472 362.105 230.92 361.717 230.726 C 360.843 231.21 360.164 231.985 359.291 233.146 L 359.388 229.468 L 364.92 222.304 Z"/>
    <path d="M 468.875 155.507 C 469.846 156.475 467.128 168.189 471.69 167.898 C 475.961 167.221 473.34 160.154 473.049 156.572 C 473.728 155.217 474.311 154.055 475.378 153.377 C 476.252 154.732 476.737 155.797 477.611 157.831 C 477.611 159.38 476.543 165.188 480.231 165.769 C 483.92 166.059 480.717 158.508 480.523 155.894 C 481.202 153.474 483.047 151.635 483.047 151.635 C 490.52 172.351 481.299 176.031 475.864 170.222 C 473.146 175.159 471.302 174.869 470.04 174.869 C 464.798 174.675 466.06 164.123 465.672 163.929 C 464.798 164.414 464.119 165.188 463.246 166.349 L 463.343 162.671 L 468.875 155.507 Z"/>
    <path d="M 251.841 145.149 L 245.725 139.534 C 248.152 156.281 253.685 192.778 259.314 228.015 C 260.188 239.439 273.777 293.263 259.897 304.783 C 261.062 283.196 247.279 214.849 243.202 183.388 C 242.523 177.772 236.602 136.049 233.107 124.238 L 237.378 109.33 L 251.938 139.243 L 251.938 145.149 L 251.841 145.149 Z"/>
    <path d="M 378.023 109.62 C 381.712 115.235 387.924 123.174 391.516 129.563 C 391.612 131.209 391.321 132.274 391.419 133.823 C 385.206 130.24 389.768 132.854 385.885 130.724 C 390.448 139.631 399.571 159.573 398.504 172.061 C 397.048 188.615 379.382 200.812 361.911 193.165 C 352.689 189.099 349.098 174.869 349.098 174.869 C 349.098 174.869 347.157 182.226 345.119 186.872 C 340.266 198.296 318.427 206.234 307.264 193.843 C 291.831 176.611 303.867 154.249 300.275 145.632 C 287.463 170.318 294.451 198.586 277.853 198.78 C 268.827 197.521 257.47 174.288 266.497 145.343 C 265.624 162.477 268.147 184.549 278.145 185.034 C 280.572 185.13 282.027 182.903 284.648 176.901 C 290.472 162.09 291.54 134.984 309.497 126.465 C 310.758 134.5 309.4 146.214 307.458 156.766 C 304.838 171.093 311.729 188.906 329.686 183.581 C 332.986 182.613 337.937 180.483 344.828 168.189 C 347.351 158.992 340.945 140.018 339.101 127.24 C 340.168 124.432 342.401 117.655 343.857 115.429 C 345.216 116.784 349.39 124.723 349.584 126.175 C 352.01 139.728 352.496 170.318 365.212 179.031 C 371.909 183.581 388.894 179.999 393.845 172.642 C 389.865 166.543 378.509 144.374 377.344 129.854 C 376.859 127.143 375.403 123.754 375.015 122.592 L 378.023 109.62 Z"/>
    <path d="M 437.815 260.543 C 423.74 258.994 442.474 227.919 450.141 227.241 C 438.688 240.503 439.367 245.344 439.465 247.183 C 439.465 249.216 441.892 252.12 444.804 249.023 L 445.871 249.797 C 445.677 250.765 443.25 261.22 437.815 260.543 Z"/>
    <path d="M 483.143 216.495 C 469.069 214.946 487.803 183.871 495.471 183.194 C 484.018 196.554 484.697 201.297 484.794 203.136 C 484.794 205.169 487.22 208.074 490.132 204.975 L 491.2 205.749 C 491.005 206.525 488.579 216.98 483.143 216.495 Z"/>
    <path d="M 522.066 201.103 C 505.08 199.167 527.696 161.897 537.014 160.928 C 523.231 176.901 524.007 182.709 524.104 184.937 C 524.201 187.454 526.919 190.938 530.511 187.163 L 531.773 188.034 C 531.579 189.292 528.667 201.877 522.066 201.103 Z"/>
    <path d="M 531.481 264.512 C 514.495 262.576 537.111 225.305 546.429 224.337 C 532.646 240.31 533.423 246.119 533.52 248.345 C 533.617 250.862 536.335 254.347 539.926 250.571 L 541.188 251.443 C 540.993 252.702 537.984 265.286 531.481 264.512 Z"/>
    <path d="M 571.957 211.268 C 554.971 209.332 577.586 172.061 586.905 171.093 C 573.122 187.066 573.898 192.874 573.995 195.101 C 574.092 197.618 576.81 201.103 580.402 197.328 L 581.663 198.199 C 581.372 199.457 578.46 212.042 571.957 211.268 Z"/>
    <path d="M 544.1 336.923 C 527.113 334.987 549.729 297.62 559.047 296.748 C 545.265 312.722 546.041 318.53 546.138 320.757 C 546.235 323.274 548.953 326.759 552.544 322.983 L 553.806 323.854 C 553.612 325.016 550.603 337.601 544.1 336.923 Z"/>
    <path d="M 284.939 283.292 C 267.953 281.356 290.569 244.085 299.888 243.117 C 286.104 259.091 286.881 264.899 286.978 267.125 C 287.075 269.642 289.793 273.128 293.384 269.352 L 294.646 270.223 C 294.354 271.385 291.442 283.97 284.939 283.292 Z"/>
    <path d="M 349.778 340.021 C 335.704 338.473 354.437 307.397 362.105 306.72 C 350.652 320.079 351.331 324.822 351.428 326.662 C 351.428 328.694 353.854 331.599 356.766 328.501 L 357.834 329.276 C 357.543 330.147 355.214 340.699 349.778 340.021 Z"/>
    <path d="M 201.853 340.893 C 187.682 339.247 206.512 308.268 214.18 307.494 C 202.726 320.853 203.406 325.597 203.503 327.436 C 203.503 329.469 205.929 332.373 208.841 329.276 L 209.909 330.05 C 209.618 331.019 207.192 341.473 201.853 340.893 Z"/>
    <path d="M 229.613 312.14 C 210.395 310.011 235.922 267.513 246.599 266.448 C 230.875 284.745 231.846 291.328 231.942 293.748 C 232.039 296.458 235.146 300.524 239.32 296.265 L 240.775 297.233 C 240.29 298.685 236.99 313.012 229.613 312.14 Z"/>
  </g>
</svg>